<?xml version="1.0" encoding="UTF-8" standalone="no"?>
<svg
        width="100mm"
        height="100mm"
        viewBox="0 0 100 100"
        version="1.1"
        id="svg1"
        xml:space="preserve"
        xmlns="http://www.w3.org/2000/svg"
        xmlns:svg="http://www.w3.org/2000/svg">
     <defs
             id="defs1"/>
    <g
            id="layer1"
            transform="translate(-60.192783,-87.765511)"
            style="display:inline"><rect
       style="display:inline;opacity:1;fill:#1447e6;fill-opacity:1;stroke-width:0.264064"
       id="rect1-9"
       width="100"
       height="100"
       x="60.192783"
       y="87.765511"
       ry="17.366699" />
        <g
                style="display:inline;fill:none;stroke:#ffffff;stroke-width:2;stroke-linecap:round;stroke-linejoin:round;stroke-opacity:1"
                id="g1"
                transform="matrix(3.444008,0,0,3.444008,69.304151,96.800876)"><path
         d="m 15,6 v 12 c 0,2.6729 3.231416,4.01101 5.121213,2.121213 C 22.01101,18.231416 20.6729,15 18,15 H 6 C 3.3270996,15 1.9889905,18.231416 3.8787874,20.121213 5.7685843,22.01101 9,20.6729 9,18 V 6 C 9,3.3270996 5.7685843,1.9889905 3.8787874,3.8787874 1.9889905,5.7685843 3.3270996,9 6,9 H 18 C 20.6729,9 22.01101,5.7685843 20.121213,3.8787874 18.231416,1.9889905 15,3.3270996 15,6"
         id="path1"
         style="stroke:#ffffff;stroke-width:2;stroke-dasharray:none;stroke-opacity:1;paint-order:normal"
         /></g></g></svg>
