<?xml version="1.0" encoding="UTF-8" standalone="no"?>
<svg
   width="493.87689mm"
   height="43.936031mm"
   viewBox="0 0 493.87689 43.936031"
   version="1.1"
   id="svg1"
   xml:space="preserve"
   sodipodi:docname="logo.svg"
   inkscape:version="1.4.2 (ebf0e940, 2025-05-08)"
   inkscape:export-filename="logo.png"
   inkscape:export-xdpi="82.295998"
   inkscape:export-ydpi="82.295998"
   xmlns:inkscape="http://www.inkscape.org/namespaces/inkscape"
   xmlns:sodipodi="http://sodipodi.sourceforge.net/DTD/sodipodi-0.dtd"
   xmlns="http://www.w3.org/2000/svg"
   xmlns:svg="http://www.w3.org/2000/svg"><sodipodi:namedview
   id="namedview1"
   pagecolor="#ffffff"
   bordercolor="#666666"
   borderopacity="0"
   inkscape:showpageshadow="false"
   inkscape:pageopacity="0.0"
   inkscape:pagecheckerboard="0"
   inkscape:deskcolor="#d1d1d1"
   inkscape:document-units="mm"
   showgrid="false"
   inkscape:zoom="0.47193117"
   inkscape:cx="923.86354"
   inkscape:cy="-325.2593"
   inkscape:window-width="1896"
   inkscape:window-height="1186"
   inkscape:window-x="854"
   inkscape:window-y="75"
   inkscape:window-maximized="0"
   inkscape:current-layer="svg1"
   showborder="false" />
     <defs
   id="defs1" />
    <g
   id="layer1"
   transform="matrix(0.43936033,0,0,0.43936033,-26.446321,-38.560684)"
   style="display:inline"><rect
   style="display:inline;opacity:1;fill:#1447e6;fill-opacity:1;stroke-width:0.264064"
   id="rect1-9"
   width="100"
   height="100"
   x="60.192783"
   y="87.765511"
   ry="17.366699" />
        <g
   style="display:inline;fill:none;stroke:#ffffff;stroke-width:2;stroke-linecap:round;stroke-linejoin:round;stroke-opacity:1"
   id="g1"
   transform="matrix(3.444008,0,0,3.444008,69.304151,96.800876)"><path
     d="m 15,6 v 12 c 0,2.6729 3.231416,4.01101 5.121213,2.121213 C 22.01101,18.231416 20.6729,15 18,15 H 6 C 3.3270996,15 1.9889905,18.231416 3.8787874,20.121213 5.7685843,22.01101 9,20.6729 9,18 V 6 C 9,3.3270996 5.7685843,1.9889905 3.8787874,3.8787874 1.9889905,5.7685843 3.3270996,9 6,9 H 18 C 20.6729,9 22.01101,5.7685843 20.121213,3.8787874 18.231416,1.9889905 15,3.3270996 15,6"
     id="path1"
     style="stroke:#ffffff;stroke-width:2;stroke-dasharray:none;stroke-opacity:1;paint-order:normal" /></g></g><text
   xml:space="preserve"
   style="font-style:normal;font-variant:normal;font-weight:normal;font-stretch:normal;font-size:50.8px;line-height:1.25;font-family:'PT Sans';-inkscape-font-specification:'PT Sans';stroke-width:0.264583"
   x="53.260761"
   y="40.429001"
   id="text1"><tspan
     sodipodi:role="line"
     id="tspan1"
     style="font-style:normal;font-variant:normal;font-weight:900;font-stretch:normal;font-size:50.8px;font-family:Inter;-inkscape-font-specification:'Inter Heavy';stroke-width:0.264583"
     x="53.260761"
     y="40.429001">OutreachStud.io</tspan></text><text
   xml:space="preserve"
   style="font-size:12.7px;line-height:1.25;font-family:sans-serif;stroke-width:0.264583"
   x="460.28516"
   y="12.894711"
   id="text2"><tspan
     sodipodi:role="line"
     id="tspan2"
     style="font-size:12.7px;stroke-width:0.264583"
     x="460.28516"
     y="12.894711">alpha</tspan></text></svg>
